<svg width="50" height="50" viewBox="0 0 50 50" fill="none" xmlns="http://www.w3.org/2000/svg">
<g clip-path="url(#clip0_403_253)">
<path d="M25 50C38.8071 50 50 38.8071 50 25C50 11.1929 38.8071 0 25 0C11.1929 0 0 11.1929 0 25C0 38.8071 11.1929 50 25 50Z" fill="#F0F0F0"/>
<path d="M25 18.4782H49.1388C48.5119 16.1526 47.5592 13.9611 46.3307 11.9564H25V18.4782Z" fill="#338AF3"/>
<path d="M9.4378 44.5652H40.5621C42.8437 42.748 44.8003 40.5408 46.3306 38.0435H3.66934C5.19971 40.5407 7.15635 42.748 9.4378 44.5652V44.5652Z" fill="#338AF3"/>
<path d="M25 0V5.43477H40.5622C36.2917 2.03359 30.8837 0 25 0V0Z" fill="#338AF3"/>
<path d="M25 18.4782H49.1388C48.5119 16.1526 47.5592 13.9611 46.3307 11.9564H25V18.4782Z" fill="#338AF3"/>
<path d="M0 25C0 27.2565 0.300781 29.4423 0.86123 31.5218H49.1389C49.6992 29.4423 50 27.2565 50 25H0Z" fill="#338AF3"/>
<path d="M21.7392 14.631L18.6858 16.0672L20.3117 19.0242L16.9963 18.39L16.5762 21.7392L14.267 19.2759L11.9576 21.7392L11.5376 18.39L8.22217 19.024L9.84796 16.0671L6.79483 14.631L9.84805 13.1949L8.22217 10.2379L11.5375 10.8721L11.9577 7.52295L14.267 9.98623L16.5763 7.52295L16.9963 10.8721L20.3118 10.2379L18.6859 13.195L21.7392 14.631Z" fill="#FFDA44"/>
</g>
<defs>
<clipPath id="clip0_403_253">
<rect width="50" height="50" fill="white"/>
</clipPath>
</defs>
</svg>
