<svg width="50" height="51" viewBox="0 0 50 51" fill="none" xmlns="http://www.w3.org/2000/svg">
<g clip-path="url(#clip0_426_1094)">
<path d="M25 51C38.8071 51 50 39.5833 50 25.5C50 11.4167 38.8071 0 25 0C11.1929 0 0 11.4167 0 25.5C0 39.5833 11.1929 51 25 51Z" fill="#D80027"/>
<path d="M13.6816 15.5195L15.8398 22.293H22.8223L17.1777 26.4865L19.3359 33.26L13.6816 29.0764L8.02734 33.26L10.1953 26.4865L4.54102 22.293H11.5234L13.6816 15.5195Z" fill="#FFDA44"/>
<path d="M29.6387 39.4953L27.9883 37.4234L25.5469 38.3897L26.9629 36.1484L25.3125 34.0666L27.8418 34.7539L29.2676 32.5127L29.4043 35.1822L31.9434 35.8695L29.4922 36.8258L29.6387 39.4953Z" fill="#FFDA44"/>
<path d="M32.9199 33.4191L33.7012 30.8691L31.5625 29.3252L34.1797 29.2854L34.9512 26.7354L35.8008 29.2654L38.418 29.2355L36.3184 30.8293L37.1582 33.3594L35.0195 31.8154L32.9199 33.4191Z" fill="#FFDA44"/>
<path d="M37.3438 18.7172L36.1914 21.1178L38.0664 22.9805L35.4785 22.602L34.3262 24.9926L33.877 22.3629L31.2793 21.9844L33.6035 20.7393L33.1543 18.0996L35.0293 19.9623L37.3438 18.7172Z" fill="#FFDA44"/>
<path d="M29.707 11.4453L29.5117 14.1049L31.9434 15.1109L29.3945 15.7484L29.209 18.418L27.832 16.1469L25.2832 16.7844L26.9727 14.7424L25.5859 12.4812L28.0176 13.4873L29.707 11.4453Z" fill="#FFDA44"/>
</g>
<defs>
<clipPath id="clip0_426_1094">
<rect width="50" height="51" fill="white"/>
</clipPath>
</defs>
</svg>
