<?xml version="1.0" standalone="no"?>
<!DOCTYPE svg PUBLIC "-//W3C//DTD SVG 20010904//EN"
 "http://www.w3.org/TR/2001/REC-SVG-20010904/DTD/svg10.dtd">
<svg version="1.0" xmlns="http://www.w3.org/2000/svg"
 width="640.000000pt" height="1280.000000pt" viewBox="0 0 640.000000 1280.000000"
 preserveAspectRatio="xMidYMid meet">
<metadata>
Created by potrace 1.15, written by Peter Selinger 2001-2017
</metadata>
<g transform="translate(0.000000,1280.000000) scale(0.100000,-0.100000)"
fill="#000000" stroke="none">
<path d="M3140 12790 c-83 -20 -128 -46 -333 -191 -74 -53 -84 -68 -113 -181
-51 -197 -56 -233 -39 -280 19 -55 20 -51 -17 -71 -65 -36 -73 -58 -70 -190 2
-136 15 -172 62 -182 16 -4 34 -4 39 -1 9 6 14 -39 27 -223 l6 -93 -108 7
c-60 4 -138 10 -174 14 -98 10 -153 -9 -185 -63 -14 -23 -25 -53 -25 -65 0
-33 -82 -238 -140 -349 -52 -100 -60 -139 -35 -182 20 -34 19 -74 -2 -92 -10
-9 -43 -23 -73 -33 -143 -45 -280 -147 -362 -268 -22 -32 -68 -118 -103 -190
-52 -108 -72 -165 -109 -312 -126 -501 -307 -1431 -360 -1853 -46 -357 -62
-778 -37 -952 18 -125 53 -265 111 -440 77 -230 83 -239 198 -314 53 -35 109
-77 124 -92 30 -33 81 -141 72 -155 -3 -5 0 -9 6 -9 18 0 50 19 113 67 67 52
88 51 118 -8 12 -24 33 -46 53 -56 42 -20 45 -31 52 -203 5 -106 2 -168 -15
-290 -44 -325 -52 -431 -52 -705 0 -295 9 -393 60 -630 44 -209 59 -326 78
-622 22 -334 22 -771 -1 -1050 -9 -111 -16 -240 -16 -287 0 -84 0 -85 61 -201
33 -64 59 -117 57 -118 -35 -18 -49 -34 -80 -93 -20 -38 -39 -87 -43 -110 -7
-46 14 -158 51 -276 l24 -77 -35 -119 c-43 -146 -47 -242 -14 -302 21 -37 21
-39 4 -91 -10 -30 -51 -119 -92 -198 l-73 -144 0 -138 c0 -133 1 -139 25 -168
27 -32 130 -76 300 -129 l90 -28 108 47 c120 53 170 86 191 127 8 17 15 76 19
157 2 72 8 138 12 147 3 9 20 21 36 27 16 6 58 36 94 67 l64 57 -6 92 c-6 88
-4 95 21 141 50 89 186 420 209 508 21 82 21 88 5 97 -17 9 -17 12 -2 41 15
29 14 36 -10 122 -79 280 -167 936 -152 1141 13 194 110 647 197 920 38 120
41 140 43 255 3 109 10 158 60 389 l58 264 -16 114 c-22 161 -22 163 14 163
l30 0 0 -115 c0 -80 6 -143 21 -208 81 -362 149 -697 158 -777 21 -184 52
-757 54 -985 2 -195 -1 -238 -15 -280 -26 -75 -68 -425 -68 -567 0 -145 15
-187 86 -240 93 -68 96 -72 96 -111 0 -27 -13 -57 -50 -114 -83 -131 -83 -117
-4 -157 l69 -35 15 -134 c13 -110 23 -150 51 -216 29 -66 37 -98 42 -174 12
-185 3 -165 134 -296 l118 -117 5 -59 c5 -67 69 -208 116 -258 66 -71 163 -89
431 -85 l175 3 32 80 c36 87 44 174 23 250 -6 22 -64 146 -129 275 l-118 235
25 65 c16 44 28 103 35 180 9 108 8 122 -15 220 l-25 105 27 20 c14 10 41 34
59 53 40 42 41 75 7 227 l-26 110 35 67 c49 94 66 188 66 364 0 185 -11 255
-125 824 -52 256 -92 476 -89 490 2 14 13 198 24 410 12 212 31 525 43 695 22
305 22 312 4 410 -11 62 -21 188 -27 330 -5 127 -12 284 -16 351 -6 102 -4
130 11 178 10 31 22 59 27 62 4 3 40 -23 79 -57 l70 -63 103 52 c57 29 107 52
112 52 24 0 202 204 453 520 68 85 133 163 144 173 20 18 21 29 26 565 13
1266 6 1598 -40 1734 -21 63 -160 363 -364 788 -76 157 -166 347 -202 424 -37
81 -98 189 -146 259 l-81 121 -178 85 -178 85 0 61 c0 66 3 61 -98 185 -43 54
-108 181 -177 348 -51 125 -77 152 -144 152 -28 0 -66 -7 -85 -17 -30 -14 -37
-14 -52 -2 -15 12 -14 16 14 39 39 33 82 97 82 124 0 12 9 40 20 64 26 58 18
133 -20 175 l-27 30 28 56 c28 55 29 59 29 228 0 159 -2 178 -25 238 -67 179
-143 274 -251 314 -130 49 -290 71 -374 51z"/>
</g>
</svg>
